<svg xmlns="http://www.w3.org/2000/svg" viewBox="58 87 90 108">
  <defs>
    <linearGradient id="grad" x1="0%" y1="0%" x2="100%" y2="100%">
      <stop offset="0%" stop-color="#ff0073"/>
      <stop offset="50%" stop-color="#fe5172"/>
      <stop offset="100%" stop-color="#b60073"/>
    </linearGradient>
  </defs>
  <path
    fill="url(#grad)"
    d="m 136.51144,189.82974 c -0.88783,-0.3511 -1.74879,-0.96484 -2.41461,-1.72125 l -1.03479,-1.17559 -5.52289,-0.005 -5.5229,-0.005 -0.80237,-0.98742 c -0.76769,-0.94475 -3.4093,-4.55756 -5.9445,-8.13004 -2.82181,-3.97636 -8.35667,-11.7335 -9.10624,-12.76246 -0.4486,-0.6158 -1.38646,-1.92549 -2.08414,-2.91041 -0.69768,-0.98493 -2.93166,-4.11249 -4.96441,-6.95015 -2.032749,-2.83765 -4.067486,-5.69515 -4.521646,-6.34999 -0.45416,-0.65485 -1.67299,-2.36136 -2.70851,-3.79225 -1.03552,-1.43089 -2.0565,-2.85964 -2.26884,-3.175 -0.21234,-0.31536 -0.85964,-1.15222 -1.43844,-1.8597 -0.89314,-1.0917 -1.07755,-1.21179 -1.21885,-0.79375 -0.12616,0.37327 -0.29842,29.9652 -0.26739,45.93476 l 0.003,1.78593 h -3.96875 -3.96875 v -36.76146 c 0,-21.86348 0.0978,-36.82192 0.24136,-36.91064 0.22049,-0.13627 1.10431,0.84208 2.52058,2.79018 0.29995,0.41257 1.55739,2.13195 2.79431,3.82084 1.23693,1.68889 2.85028,3.92518 3.58522,4.96954 0.73494,1.04436 1.83868,2.61321 2.45276,3.48634 1.26718,1.80174 5.07844,7.28512 6.988214,10.05416 0.702548,1.01865 1.871448,2.68552 2.597557,3.70417 0.726105,1.01865 1.858255,2.62599 2.515885,3.57188 0.65763,0.94588 1.8161,2.58469 2.57438,3.64179 0.75828,1.0571 2.5342,3.55741 3.94648,5.55625 1.41229,1.99884 3.70687,5.24159 5.09907,7.20612 1.3922,1.96453 3.07037,4.34578 3.72926,5.29167 0.65889,0.94588 1.75759,2.50332 2.44156,3.46096 0.68397,0.95764 2.17066,3.06436 3.30376,4.68159 2.39163,3.41348 2.18623,3.32268 7.20023,3.1832 l 2.91042,-0.081 0.13229,-43.0706 c 0.11641,-37.900385 0.17993,-43.100715 0.52917,-43.321465 0.21828,-0.13798 1.96171,-0.25269 3.87428,-0.25492 2.92937,-0.003 3.50275,0.0619 3.63803,0.41446 0.0883,0.23019 0.16061,19.868255 0.16061,43.640155 v 43.22164 l 1.04661,1.20925 c 2.57984,2.98079 1.93759,7.04195 -1.42534,9.01275 -1.59708,0.93595 -3.36355,1.06749 -5.10213,0.37994 z m -73.468966,-3.31535 c -0.0883,-0.23018 -0.16059,-19.79751 -0.16059,-43.48295 V 99.967005 l -0.55733,-0.50402 c -1.35896,-1.22903 -1.99314,-3.44152 -1.57028,-5.4784 0.51742,-2.49241 3.30458,-4.68292 5.95845,-4.68292 1.43154,0 3.21256,0.78077 4.24918,1.86276 l 0.75023,0.78307 h 5.75658 c 6.67042,0 6.17097,-0.1832 8.35938,3.06618 2.83354,4.20728 10.70482,15.385145 16.845036,23.921315 0.60706,0.84393 3.57634,5.07486 4.92068,7.01146 0.30304,0.43656 1.41721,1.98437 2.47591,3.43958 1.05871,1.45521 2.50168,3.47927 3.20661,4.49792 2.16967,3.13523 4.48483,6.21771 4.66996,6.21771 0.0969,0 0.25369,-0.30897 0.34846,-0.68659 0.0948,-0.37762 0.1509,-11.07822 0.12472,-23.77911 -0.0262,-12.70088 0.0353,-23.226605 0.13656,-23.390485 0.2291,-0.37069 6.71709,-0.40538 7.29668,-0.039 0.34908,0.22065 0.40518,4.62335 0.46582,36.558565 0.0379,19.96924 -0.0328,36.40942 -0.15709,36.53374 -0.33298,0.33298 -3.33552,-3.631 -8.86475,-11.70336 -0.84725,-1.23692 -2.18457,-3.14192 -2.97182,-4.23333 -0.78726,-1.0914 -2.21642,-3.11547 -3.17591,-4.49791 -0.95949,-1.38245 -2.01132,-2.88703 -2.33739,-3.34351 -0.32607,-0.45648 -3.08435,-4.3085 -6.1295,-8.56005 -7.338866,-10.24629 -9.249546,-12.91759 -10.031996,-14.02561 -0.35967,-0.50932 -1.30602,-1.81901 -2.10299,-2.91042 -0.79698,-1.0914 -2.2351,-3.11547 -3.19584,-4.49791 -0.96073,-1.38245 -2.14763,-3.04933 -2.63754,-3.70417 -0.48992,-0.65484 -1.68842,-2.34659 -2.66334,-3.75944 -0.97492,-1.41285 -1.98597,-2.76193 -2.24678,-2.99796 -0.39552,-0.35794 -1.12267,-0.42458 -4.38253,-0.40164 -2.14958,0.0151 -3.97504,0.0944 -4.05657,0.17613 -0.0815,0.0817 -0.16129,19.33735 -0.17726,42.79024 -0.0159,23.45289 -0.0457,42.79045 -0.0661,42.97236 -0.0279,0.24811 -1.0214,0.33072 -3.97756,0.33072 -3.3491,0 -3.96455,-0.0628 -4.10105,-0.41851 z"
  />
</svg>
